<svg version="1.1" id="Layer_1" xmlns="http://www.w3.org/2000/svg" xmlns:xlink="http://www.w3.org/1999/xlink" x="0px" y="0px"
	 viewBox="0 0 129 15.4" style="enable-background:new 0 0 129 15.4;" xml:space="preserve">

 <g>
  <title>background</title>
  <rect fill="none" id="canvas_background" height="402" width="582" y="-1" x="-1"/>
 </g>
 <g>
  <title>Layer 1</title>
  <g id="svg_1">
   <path id="svg_2" d="m0.909703,-25.767681l3.7,0l2.9,6.9l2.9,-6.9l3.7,0l-6.4,14.9l-0.4,0l-6.4,-14.9z" class="st0"/>
   <path id="svg_3" d="m23.109703,-25.767681l3.5,0l0,9c0,1.9 0.9,2.6 2.1,2.6c1.3,0 2.2,-0.7 2.2,-2.6l0,-9l3.5,0l0,9.5c0,3.4 -2.5,5.3 -5.7,5.3c-3.3,0 -5.6,-2 -5.6,-5.3l0,-9.5z" class="st0"/>
   <path id="svg_4" d="m44.809703,-25.767681l9.5,0l0,3.1l-6,0l0,2.6l5.6,0l0,3.1l-5.5,0l0,2.6l6.3,0l0,3l-9.8,0l0,-14.4l-0.1,0z" class="st0"/>
   <path id="svg_5" d="m67.609703,-15.567681c0,0.8 0.7,1.5 1.5,1.5c0.9,0 1.4,-0.5 1.4,-1.2c0,-1.1 -1.4,-1.4 -2.6,-1.8c-2.4,-0.9 -3.8,-2 -3.8,-4.5c0,-2.5 2.2,-4.7 4.9,-4.7c3.2,0 4.7,2 4.9,4.7l-3.3,0c0,-0.8 -0.5,-1.5 -1.5,-1.5c-0.8,0 -1.5,0.5 -1.5,1.4c0,1.1 1.3,1.3 2.5,1.6c2.6,0.8 3.8,2.2 3.8,4.5c0,2.5 -2.2,4.7 -4.9,4.7c-3.1,0 -4.9,-2.1 -4.9,-4.7l3.5,0z" class="st0"/>
   <path id="svg_6" d="m86.309703,-22.667681l-3.2,0l0,-3.1l10,0l0,3.1l-3.2,0l0,11.3l-3.6,0l0,-11.3z" class="st0"/>
   <path id="svg_7" d="m102.409703,-25.767681l3.5,0l0,14.4l-3.5,0l0,-14.4z" class="st0"/>
   <path id="svg_8" d="m123.709703,-26.267681c2.7,0 4.6,1 6.2,2.6l-2.4,2.3c-1,-1 -2.3,-1.6 -3.7,-1.6c-2.6,0 -4.2,1.9 -4.2,4.3s1.7,4.3 4.2,4.3c1.4,0 2.7,-0.6 3.7,-1.6l2.4,2.3c-1.4,1.5 -3.4,2.6 -6.1,2.6c-4.6,0 -7.8,-3.4 -7.8,-7.7s3.1,-7.5 7.7,-7.5z" class="st0"/>
  </g>
  <text stroke="#000" transform="matrix(1.0242377519607544,0,0,1.0242377519607544,0.00871044211089611,0.08786185085773468) " font-weight="bold" xml:space="preserve" text-anchor="start" font-family="'Trebuchet MS', Gadget, sans-serif" font-size="18" id="svg_9" y="13.428745" x="-0.262186" stroke-width="0" fill="#4ae387">T e s t G u r t z</text>
 </g>
</svg>
