<?xml version="1.0" encoding="UTF-8"?>
<svg width="250px" height="45px" viewBox="0 0 446 93" version="1.1" xmlns="http://www.w3.org/2000/svg" xmlns:xlink="http://www.w3.org/1999/xlink">
    <!-- Generator: Sketch 52.5 (67469) - http://www.bohemiancoding.com/sketch -->
    <title>Combined Shape</title>
    <desc>Created with Sketch.</desc>
    <g id="Page-1" stroke="none" stroke-width="1" fill="none" fill-rule="evenodd">
        <g id="Artboard" transform="translate(-75.000000, -80.000000)" fill="#000">
            <path d="M520.72,81.4 L520.72,171 L507.024,171 L457.616,110.328 L457.616,171 L441.104,171 L441.104,81.4 L454.8,81.4 L504.208,142.072 L504.208,81.4 L520.72,81.4 Z M347.184,172.28 C338.053288,172.28 329.818703,170.29602 322.48,166.328 C315.141297,162.35998 309.381354,156.856035 305.2,149.816 C301.018646,142.775965 298.928,134.904044 298.928,126.2 C298.928,117.495956 301.018646,109.624035 305.2,102.584 C309.381354,95.5439648 315.141297,90.0400198 322.48,86.072 C329.818703,82.1039802 338.053288,80.12 347.184,80.12 C356.314712,80.12 364.549297,82.1039802 371.888,86.072 C379.226703,90.0400198 384.986646,95.5226317 389.168,102.52 C393.349354,109.517368 395.44,117.410623 395.44,126.2 C395.44,134.989377 393.349354,142.882632 389.168,149.88 C384.986646,156.877368 379.226703,162.35998 371.888,166.328 C364.549297,170.29602 356.314712,172.28 347.184,172.28 Z M347.184,157.688 C353.157363,157.688 358.533309,156.344013 363.312,153.656 C368.090691,150.967987 371.84532,147.213357 374.576,142.392 C377.30668,137.570643 378.672,132.173363 378.672,126.2 C378.672,120.226637 377.30668,114.829357 374.576,110.008 C371.84532,105.186643 368.090691,101.432013 363.312,98.744 C358.533309,96.0559866 353.157363,94.712 347.184,94.712 C341.210637,94.712 335.834691,96.0559866 331.056,98.744 C326.277309,101.432013 322.52268,105.186643 319.792,110.008 C317.06132,114.829357 315.696,120.226637 315.696,126.2 C315.696,132.173363 317.06132,137.570643 319.792,142.392 C322.52268,147.213357 326.277309,150.967987 331.056,153.656 C335.834691,156.344013 341.210637,157.688 347.184,157.688 Z M255.152,157.048 L255.152,171 L187.952,171 L187.952,81.4 L253.36,81.4 L253.36,95.352 L204.592,95.352 L204.592,118.648 L247.856,118.648 L247.856,132.344 L204.592,132.344 L204.592,157.048 L255.152,157.048 Z M75.28,81.4 L91.92,81.4 L91.92,156.92 L138.768,156.92 L138.768,171 L75.28,171 L75.28,81.4 Z" id="Combined-Shape"></path>
        </g>
    </g>
</svg>